<svg width="32" height="32" viewBox="0 0 32 32" fill="none" xmlns="http://www.w3.org/2000/svg">
<g clip-path="url(#clip0_326_958)">
<rect width="32" height="32" rx="16" fill="#F7931A"/>
<path d="M23.9556 13.4424C24.3093 11.2358 22.509 10.0496 20.0474 9.25825L20.8459 6.26913L18.8962 5.81569L18.1188 8.72603C17.6063 8.60684 17.0798 8.49439 16.5567 8.38297L17.3397 5.45345L15.3912 5L14.5921 7.98808C14.1678 7.8979 13.7513 7.80878 13.3471 7.71498L13.3493 7.70565L10.6606 7.07911L10.1419 9.02245C10.1419 9.02245 11.5885 9.33183 11.5579 9.35101C12.3476 9.53498 12.4903 10.0226 12.4664 10.4092L11.5568 13.8145C11.6112 13.8274 11.6818 13.8461 11.7595 13.8751C11.6945 13.8601 11.6251 13.8435 11.5535 13.8274L10.2785 18.5977C10.1819 18.8216 9.937 19.1574 9.38503 19.0299C9.40446 19.0563 7.9679 18.6998 7.9679 18.6998L7 20.7825L9.53717 21.3728C10.0092 21.4832 10.4717 21.5987 10.9271 21.7075L10.1202 24.7309L12.0677 25.1843L12.8668 22.1931C13.3987 22.3279 13.9152 22.4522 14.4205 22.5694L13.6242 25.5466L15.5739 26L16.3807 22.9824C19.7053 23.5695 22.2053 23.3327 23.2576 20.5265C24.1055 18.2671 23.2154 16.9637 21.4662 16.1138C22.74 15.8397 23.6996 15.0577 23.9556 13.4424ZM19.5009 19.2719C18.8984 21.5314 14.822 20.3099 13.5004 20.0036L14.571 15.9983C15.8926 16.3061 20.1307 16.9155 19.5009 19.2719ZM20.104 13.4097C19.5542 15.465 16.1614 14.4208 15.0608 14.1648L16.0314 10.5321C17.132 10.7881 20.6765 11.2658 20.104 13.4097Z" fill="white"/>
</g>
<defs>
<clipPath id="clip0_326_958">
<rect width="32" height="32" fill="white"/>
</clipPath>
</defs>
</svg>
