<svg width="32" height="32" viewBox="0 0 32 32" fill="none" xmlns="http://www.w3.org/2000/svg">
<g clip-path="url(#clip0_325_951)">
<rect width="32" height="32" rx="16" fill="#009393"/>
<path fill-rule="evenodd" clip-rule="evenodd" d="M17.4329 17.1384C17.325 17.1463 16.7672 17.1786 15.5229 17.1786C14.5333 17.1786 13.8307 17.1497 13.5842 17.1384C9.7597 16.975 6.90506 16.3283 6.90506 15.554C6.90506 14.7797 9.7597 14.1339 13.5842 13.9679V16.4943C13.8343 16.5118 14.5504 16.5529 15.54 16.5529C16.7276 16.5529 17.3223 16.5048 17.4293 16.4952V13.9696C21.2457 14.1348 24.094 14.7815 24.094 15.554C24.094 16.3265 21.2466 16.9732 17.4293 17.1375L17.4329 17.1384ZM17.4329 13.7083V11.4475H22.7589V8H8.25816V11.4475H13.5833V13.7074C9.25498 13.9006 6 14.7334 6 15.7314C6 16.7294 9.25498 17.5614 13.5833 17.7554V25H17.432V17.7527C21.7504 17.5596 25 16.7277 25 15.7305C25 14.7334 21.7531 13.9015 17.432 13.7074L17.4329 13.7083Z" fill="white"/>
</g>
<defs>
<clipPath id="clip0_325_951">
<rect width="32" height="32" fill="white"/>
</clipPath>
</defs>
</svg>
